<?xml version="1.0" encoding="utf-8"?>
<!-- Generator: Adobe Illustrator 24.3.2, SVG Export Plug-In . SVG Version: 6.00 Build 0)  -->
<svg version="1.1" id="Layer_1" xmlns="http://www.w3.org/2000/svg" xmlns:xlink="http://www.w3.org/1999/xlink" x="0px" y="0px"
	 viewBox="0 0 120 120" style="enable-background:new 0 0 120 120;" xml:space="preserve">
<style type="text/css">
	.st0{fill:#E7E7E7;}
</style>
<path class="st0" d="M73.34,25.3H44.66c-10.81,0-19.58,8.84-19.58,19.74v28.92c0,10.9,8.77,19.74,19.58,19.74h28.68
	c10.81,0,19.58-8.84,19.58-19.74V45.05C92.92,34.14,84.15,25.3,73.34,25.3z M86.67,74.46c0,7.24-5.82,13.1-13,13.1H44.32
	c-7.18,0-13-5.87-13-13.1V44.88c0-7.24,5.82-13.1,13-13.1h29.35c7.18,0,13,5.87,13,13.1V74.46z M59,41.93
	c-9.72,0-17.6,7.95-17.6,17.75S49.28,77.42,59,77.42s17.6-7.94,17.6-17.74S68.72,41.93,59,41.93z M59,71.18
	c-6.3,0-11.41-5.15-11.41-11.5S52.7,48.17,59,48.17s11.41,5.15,11.41,11.5S65.3,71.18,59,71.18z M77.2,37.12
	c-2.28-0.02-4.15,1.82-4.17,4.1c-0.02,2.28,1.82,4.15,4.1,4.17c2.28,0.02,4.15-1.82,4.17-4.1c0-0.01,0-0.02,0-0.03
	C81.31,38.98,79.47,37.13,77.2,37.12z"/>
</svg>
