<?xml version="1.0" encoding="utf-8"?>
<!-- Generator: Adobe Illustrator 24.3.2, SVG Export Plug-In . SVG Version: 6.00 Build 0)  -->
<svg version="1.1" id="Layer_1" xmlns="http://www.w3.org/2000/svg" xmlns:xlink="http://www.w3.org/1999/xlink" x="0px" y="0px"
	 viewBox="0 0 120 120" style="enable-background:new 0 0 120 120;" xml:space="preserve">
<style type="text/css">
	.st0{fill-rule:evenodd;clip-rule:evenodd;fill:#E7E7E7;}
</style>
<g>
	<g>
		<path class="st0" d="M78,21H41.9c-4,0-9.5,4.9-9.5,9.5v15.3v28.5v15.3c0,4.6,4.8,8.4,8.8,8.4h36.4c4,0,8.1-3.7,8.1-8.4V74.3V45.8
			V30.5C85.6,25.9,82,21,78,21z M54.7,25.4h7.1c1.5,0,2.7,1.2,2.7,2.7c0,1.5-1.2,2.7-2.7,2.7h-7.1c-1.5,0-2.7-1.2-2.7-2.7
			C52,26.6,53.2,25.4,54.7,25.4z M81.9,91.3l-45.7,0.2V74.3V45.8V34.3h45.6l0.1,39.9V91.3z M56.7,49.3l12.1,12.5l-9.6,8.4l-7.7-8.4
			l4.1-3.4l3,2.6l-2.7,2.7l3.3,3.3l5.2-5.1L54.3,51l-11,10.9l16,15.8l16-15.8L60.1,45.3L56.7,49.3z"/>
	</g>
</g>
</svg>
