<?xml version="1.0" encoding="utf-8"?>
<!-- Generator: Adobe Illustrator 24.3.2, SVG Export Plug-In . SVG Version: 6.00 Build 0)  -->
<svg version="1.1" id="Layer_1" xmlns="http://www.w3.org/2000/svg" xmlns:xlink="http://www.w3.org/1999/xlink" x="0px" y="0px"
	 viewBox="0 0 120 120" style="enable-background:new 0 0 120 120;" xml:space="preserve">
<style type="text/css">
	.st0{fill-rule:evenodd;clip-rule:evenodd;fill:#E7E7E7;}
</style>
<path class="st0" d="M103.25,40.97c0,0-0.8-6.24-3.4-8.96c-3.28-3.56-6.95-3.52-8.59-3.76c-12.1-0.89-30.21-0.8-30.21-0.8h-0.09
	c0,0-18.1-0.09-30.2,0.8c-1.73,0.24-5.39,0.24-8.67,3.8c-2.58,2.72-3.13,8.94-3.13,8.94s-0.56,7.3-0.56,14.52v6.9
	c0,7.32,0.56,14.54,0.56,14.54s0.72,6.24,3.3,9c3.28,3.61,7.52,3.47,9.48,3.85c6.9,0.7,29.37,0.94,29.37,0.94s18.13-0.09,30.23-0.94
	c1.64-0.23,5.34-0.23,8.62-3.85c2.58-2.77,3.3-9,3.3-9s0.67-7.23,0.67-14.54v-6.89C103.93,48.29,103.25,40.97,103.25,40.97z
	 M52.61,70.66V45.33l10.32,5.77l12.94,6.94L52.61,70.66z"/>
</svg>
